# xmcd
#
# Track frame offsets: 
#        150
#        23363
#        45488
#        70608
#        92185
#        111410
#        137730
#        170248
#
# Disc length: 2454 seconds
#
# Revision: 2
# Processed by: cddbd v1.4PL0 Copyright (c) Steve Scherf et al.
# Submitted via: ExactAudioCopy v0.90b4
#
DISCID=66099408
DTITLE=Andrae Crouch - I'll Be Thinking Of You
DYEAR=1900
DGENRE=Gospel
TTITLE0=I'll Be Thinking Of You
TTITLE1=Ive Got The Best
TTITLE2=Touch Me
TTITLE3=Lookin' For You
TTITLE4=Bringin' Back The Sunshine
TTITLE5=Jesus Is Lord
TTITLE6=The Love Medley: There's No Hatred, Let The Same Spirit, There
TTITLE6='s No Hatred (reprise)
TTITLE7=Dreamin'
EXTD=
EXTT0=
EXTT1=
EXTT2=
EXTT3=
EXTT4=
EXTT5=
EXTT6=
EXTT7=
PLAYORDER=
